<?xml version="1.0" encoding="utf-8"?>
<!-- Generator: Adobe Illustrator 24.0.2, SVG Export Plug-In . SVG Version: 6.00 Build 0)  -->
<svg version="1.1" id="Layer_1" xmlns="http://www.w3.org/2000/svg" xmlns:xlink="http://www.w3.org/1999/xlink" x="0px" y="0px"
	 viewBox="0 0 660 403" style="enable-background:new 0 0 660 403;" xml:space="preserve">
<style type="text/css">
	.st0{fill:#00E1D4;}
	.st1{fill:#00C7BB;}
	.st2{fill:#FFFFFF;}
	.st3{fill:#000025;}
</style>
<title>Asset 41</title>
<image style="overflow:visible;opacity:0.3;enable-background:new    ;" width="660" height="403" xlink:href="E3A6CBCD.png" >
</image>
<path class="st0" d="M41.4,158.1c-22.8,13.2-22.9,34.6-0.2,47.8l246.6,143.3c22.7,13.2,59.6,13.2,82.5,0l248.2-143.3
	c22.9-13.2,23-34.6,0.3-47.8L372.1,14.8c-22.7-13.2-59.6-13.2-82.5,0L41.4,158.1z"/>
<path class="st1" d="M41.2,206l246.6,143.4c22.7,13.2,59.6,13.2,82.5,0l248.2-143.3c11.5-6.6,17.3-15.4,17.2-24.1v15.8
	c0,8.7-5.7,17.4-17.2,24.1L370.3,365.2c-22.8,13.2-59.8,13.2-82.5,0L41.2,221.9c-11.2-6.6-16.9-15.1-16.9-23.7l0-15.8
	C24.3,190.9,29.9,199.5,41.2,206z"/>
<path class="st2" d="M483.4,130c10,5.8,10.1,15.2,0.1,21l-30.5,17.7c8.7-5.1,23-5.1,31.8,0c9.6,5.5,8.2,13.7-0.5,18.8L354.4,263
	c-37,21.5-97.6,21.9-134.8,0.4c-29.9-17.3-45.8-41-43.8-65.4l4.2-65.3c0.3-4.4,6.5-7.8,14.1-7.8c11.7,0,22.3,2.8,30,7.2
	c7.4,4.3,12.1,10.1,12.6,16.7l0.9,16l115-66.8c9.9-5.8,26.5-6.8,37.2-0.6c10,5.8,10.1,15.2,0.1,21l16.3-9.5c10.4-6,28-7.3,39.7-0.6
	c10.7,6.2,10.8,16.2,0.1,22.4l1.1-0.7C456.9,124.3,472.7,123.8,483.4,130z"/>
<path class="st3" d="M491.1,166.8c10.9,6.3,10.7,16.3-0.5,22.8L360.6,265c-39.1,22.7-102.8,22.9-141.8,0.4
	c-34-19.6-47.5-39.8-45.2-67.6l4.2-65.3c0.4-5.9,8.7-10.6,19-10.6c13.1,0,25,3.1,33.5,8c8.3,4.8,13.5,11.3,13.9,18.6l0.6,9.5
	L351.8,96c12.4-7.2,32.2-7.5,44.1-0.6c5.7,3.3,8.6,7.5,9,11.8c12.2-7.1,32.9-9.2,47.1-0.9c8,4.6,10.9,11,8.9,17
	c9.9-1.4,20.8,0.2,28.7,4.8c11.9,6.9,12,18.1,0.1,25l-15.7,9.1C480.1,162.4,485.9,163.9,491.1,166.8z M353.7,261l129.9-75.5
	c6.3-3.7,8.7-10.1,0.6-14.8c-6.9-4-18-4-24.9,0l-62,36l-7-4l92.4-53.7c8-4.7,8-12.3-0.1-17c-8.4-4.8-21-4.8-29.4,0L361,185.8l-7-4
	l91.2-53c8.7-5.1,8.7-13.3-0.1-18.4c-10-5.8-24.5-4.2-32.7,0.6l-90.2,52.4l-7-4l73.9-42.9c8-4.7,8-12.3-0.1-17
	c-9.2-5.3-22.6-3.9-30.3,0.6l-111.5,64.8l33.4,19.3c13.8,7.9,20.9,18.9,19.5,30l-9.8-0.4c1.1-9.5-4.9-18.9-16.6-25.6l-36.8-21.3
	c-1.1-0.6-1.4-1.2-1.5-1.9l-0.9-16c-0.4-5.8-4.5-11-11.1-14.8c-6.8-3.9-16.2-6.3-26.6-6.4c-4.9,0-9,2.2-9.2,5.1l-4.2,65.3
	c-2.2,26.3,10.1,44.6,42.3,63.3C261,281.8,318.4,281.6,353.7,261"/>
</svg>
