<?xml version="1.0" encoding="utf-8"?>
<!-- Generator: Adobe Illustrator 24.0.2, SVG Export Plug-In . SVG Version: 6.00 Build 0)  -->
<svg version="1.1" id="Layer_1" xmlns="http://www.w3.org/2000/svg" xmlns:xlink="http://www.w3.org/1999/xlink" x="0px" y="0px"
	 viewBox="0 0 660 404" style="enable-background:new 0 0 660 404;" xml:space="preserve">
<style type="text/css">
	.st0{fill:#FF8CF8;}
	.st1{fill:#E86BD1;}
	.st2{fill:#FFFFFF;}
	.st3{fill:#000025;}
</style>
<title>Asset 51</title>
<g id="Layer_2_1_">
	<image style="overflow:visible;opacity:0.3;enable-background:new    ;" width="660" height="404" xlink:href="788DA1D.png" >
	</image>
	<path class="st0" d="M618.6,158.5c22.8,13.2,22.9,34.6,0.2,47.8L372.2,349.6c-22.7,13.2-59.6,13.2-82.5,0L41.5,206.3
		c-22.9-13.2-23-34.6-0.3-47.8L287.9,15.2c22.7-13.2,59.6-13.2,82.5,0L618.6,158.5z"/>
	<path class="st1" d="M618.8,206.2L372.2,349.6c-22.7,13.2-59.6,13.2-82.5,0L41.5,206.3c-11.5-6.6-17.2-15.4-17.2-24.1v15.9
		c0,8.7,5.7,17.4,17.2,24l248.2,143.4c22.8,13.2,59.8,13.2,82.5,0l246.6-143.3c11.3-6.6,16.9-15.1,17-23.7v-15.9
		C635.7,191.1,630.1,199.7,618.8,206.2z"/>
	<path class="st2" d="M266.1,69.1c-8.9,5.1-10.1,13.3-2.4,19.3l83.6,65.3l-112.1-48.5c-10.2-4.5-24.4-3.8-33.2,1.3
		c-0.8,0.5-1.6,1-2.4,1.6c-8.5,6.5-6.3,15.7,4.9,20.6l84.6,37c-6,0.2-11.8,1.7-17.1,4.5c-10.6,6.1-10.6,16-0.1,22.1l17.2,10
		c-10.5-6.1-27.7-6.1-38.3,0s-10.6,16-0.1,22.1l51.7,30c38.1,22.1,100.2,24.8,140.9,4.1c1.7-0.8,3.3-1.7,4.9-2.6
		c37.6-21.7,43-58.4-1.4-84.3c-61.2-35.5-40.8-23.6-142.3-101c-8.4-6.5-24.4-7.8-35.6-2.9C267.9,68.1,267,68.5,266.1,69.1z"/>
	<path class="st3" d="M269.5,195l-1-0.6c-12.4-7.2-12.3-19,0.2-26.2c3-1.7,6.2-2.9,9.5-3.8l-76.5-33.5c-13.3-5.8-15.9-16.9-5.8-24.6
		c0.9-0.7,1.8-1.3,2.8-1.8c10.6-6.1,27.6-6.9,39.7-1.6l85.1,36.9l-63.6-49.6c-4.8-3.7-6.9-8.4-5.7-13c1-3.8,4-7.3,8.6-9.9
		c1.1-0.6,2.2-1.1,3.3-1.6c13.4-5.8,32.4-4.3,42.4,3.4c25.5,19.4,43.5,33.3,56.6,43.5c39.7,30.8,39.7,30.8,85.3,57.3
		c22.3,12.9,33.9,29.6,32.9,46.8c-0.9,15.6-12.3,30.5-31.5,41.6c-1.6,0.9-3.3,1.9-5,2.7c-42,21.3-106.9,19.5-147.6-4.2l-51.7-30
		c-12.4-7.2-12.4-19,0.1-26.2C253.6,196.8,261.5,195,269.5,195z M357.1,115.9C344,105.7,326,91.8,300.5,72.4
		c-6.8-5.3-19.7-6.3-28.7-2.3c-0.8,0.3-1.5,0.7-2.2,1.1c-3.1,1.8-5.2,4.2-5.9,6.7c-0.8,3.2,0.6,6.3,3.9,8.8l83.6,65.3
		c1.4,1.1,1.2,2.7-0.5,3.7c-2,1-4.3,1.1-6.4,0.3l-112.1-48.6c-8.2-3.6-19.7-3.1-26.9,1c-0.7,0.4-1.3,0.8-1.9,1.3
		c-6.8,5.2-5.1,12.7,4,16.7l83.2,36.4c8.3-0.1,16.7,1.7,23,5.4l28.7,16.7l26.2-15.1c14.2-8.2,33.9-11.2,52.1-9.1
		C395.6,145.7,389.3,140.8,357.1,115.9 M305.9,252.6c37.1,21.6,96.1,23.3,134.3,4c1.5-0.8,3.1-1.6,4.5-2.4
		c17.4-10.1,27.8-23.6,28.7-37.8c1-15.6-9.7-30.8-30-42.6c-18.6-10.8-49-10.8-67.7,0l-58.3,33.6c-3.1,1.8-3.5,4.6-1.2,6.6
		c0.7,0.4,1.4,0.8,2,1.3c13.2,7.2,34.1,7,47.1-0.5l29.4-17l6.9,4c-15.7,9.1-15.8,23.9-0.2,33l9.4,5.5l-7,4l-9.4-5.5
		c-11.6-6.8-16.3-16-13.9-24.8l-8.3,4.8c-12.8,7.4-31.5,9.2-47.2,5.6c1.3,5.6-1.8,11.4-9.1,15.6c-6.1,3.5-14,5.3-22,5.4L305.9,252.6
		 M277.5,236c8.6,5,22.6,5,31.3,0c8-4.6,8.6-11.9,2-16.9l-0.5-0.3c-0.6-0.3-1.2-0.7-1.7-1.2l-22.9-13.3c-8.6-5-22.7-5-31.3,0
		s-8.7,13.1-0.1,18.1L277.5,236 M285.4,168.9c-3.5,0.5-6.8,1.6-9.9,3.3c-8.7,5-8.7,13.1-0.1,18.1l17.3,10.1l12.9,7.6
		c1.1-1.9,2.8-3.5,4.8-4.6l25.1-14.5l-28.7-16.7C301.1,168.9,292.8,167.8,285.4,168.9"/>
</g>
</svg>
